<svg width="508" height="247" viewBox="0 0 508 247" fill="none" xmlns="http://www.w3.org/2000/svg">
<g filter="url(#filter0_dd_309_9)">
<path fill-rule="evenodd" clip-rule="evenodd" d="M38.7787 15.4888C40.5772 11.4531 45.3067 9.63948 49.3424 11.4379L116.725 41.4659C120.761 43.2643 122.575 47.9938 120.776 52.0295L120.261 53.1854L37.8564 17.5585L38.7787 15.4888ZM35.3872 23.0995L23.6895 49.3491C21.8911 53.3848 23.7047 58.1143 27.7404 59.9128L95.1235 89.9408C99.1592 91.7392 103.889 89.9255 105.687 85.8898L117.792 58.7264L35.3872 23.0995ZM34.9961 50.7061C35.7252 49.013 37.6888 48.2316 39.3818 48.9608L48.759 52.9993C50.452 53.7284 51.2334 55.692 50.5042 57.385C49.7751 59.0781 47.8115 59.8595 46.1185 59.1303L36.7414 55.0918C35.0483 54.3627 34.2669 52.3991 34.9961 50.7061Z" fill="url(#paint0_linear_309_9)"/>
</g>
<g filter="url(#filter1_dd_309_9)">
<path d="M95.164 187.198L85.4743 198.707L100.446 199.626L108.936 212.252L114.058 198.106L128.656 194.397L116.771 184.776L117.766 169.627L105.144 178.064L90.6615 172.461L95.164 187.198Z" fill="url(#paint1_linear_309_9)"/>
</g>
<g filter="url(#filter2_dd_309_9)">
<path d="M479.919 45.7078L480.928 57.4641L489.741 49.6712L501.451 51.9648L496.447 41.2791L502.486 31.1259L490.559 32.382L482.709 23.4286L480.388 35.1073L469.249 40.0318L479.919 45.7078Z" fill="url(#paint2_linear_309_9)"/>
</g>
<g filter="url(#filter3_dd_309_9)">
<path fill-rule="evenodd" clip-rule="evenodd" d="M412.601 100.41C407.644 97.9743 401.651 100.018 399.216 104.975L360.41 183.957C357.974 188.914 360.018 194.906 364.975 197.342L406.261 217.627C411.218 220.062 417.211 218.018 419.646 213.061L458.452 134.08C460.888 129.123 458.844 123.13 453.887 120.695L412.601 100.41ZM409.104 112.062C405.634 110.357 401.44 111.788 399.735 115.258L371.512 172.699C369.807 176.169 371.238 180.364 374.708 182.068L412.404 200.589C415.873 202.294 420.068 200.863 421.773 197.394L449.996 139.952C451.701 136.483 450.27 132.288 446.8 130.583L409.104 112.062ZM392.957 201.619C391.617 204.345 388.321 205.47 385.595 204.13C382.869 202.791 381.744 199.495 383.084 196.768C384.423 194.042 387.719 192.918 390.446 194.257C393.172 195.597 394.296 198.893 392.957 201.619ZM420.717 109.969C419.974 109.603 419.075 109.91 418.71 110.653C418.344 111.397 418.651 112.296 419.395 112.661L439.14 122.363C439.883 122.728 440.782 122.421 441.148 121.678C441.513 120.934 441.206 120.035 440.463 119.67L420.717 109.969Z" fill="url(#paint3_linear_309_9)"/>
</g>
<g filter="url(#filter4_dd_309_9)">
<path d="M222.644 49L204.144 195.5C203.811 196.167 203.844 198.9 206.644 204.5C209.444 210.1 215.811 211.833 218.644 212H367.144C369.644 212.167 375.644 211.3 379.644 206.5C383.644 201.7 383.644 196.167 383.144 194L365.144 49H332.644V72C333.477 72.5 335.244 74.3 335.644 77.5C336.044 80.7 333.811 84.1667 332.644 85.5C329.977 87.3333 323.444 89.9 318.644 85.5C313.844 81.1 316.311 74 318.144 71V49H269.144V72C269.811 72.1667 271.244 73.8 271.644 79C272.144 85.5 264.644 88.5 261.644 88C258.644 87.5 254.144 86.5 252.144 81C250.544 76.6 253.144 72.5 254.644 71V49H222.644Z" fill="url(#paint4_linear_309_9)"/>
</g>
<g filter="url(#filter5_dd_309_9)">
<path d="M257.442 79.0224C258.242 83.0224 260.775 83.6891 261.942 83.5224C266.342 83.5224 267.109 80.5224 266.942 79.0224V36.0225C267.775 29.0225 274.242 14.8225 293.442 14.0225C312.642 13.2225 319.775 29.0225 320.942 37.0225V79.5225C320.942 80.8558 321.942 83.5224 325.942 83.5224C329.942 83.5224 330.609 80.8558 330.442 79.5225C330.442 79.5225 330.884 48.5449 329.942 35.5224C329 22.5 319.442 5.82243 293.442 5.02243C267.442 4.22243 258.609 25.0224 257.442 35.5224C257.109 48.3558 256.642 75.0224 257.442 79.0224Z" fill="url(#paint5_linear_309_9)"/>
</g>
<defs>
<filter id="filter0_dd_309_9" x="0.994873" y="0.743164" width="130.476" height="111.892" filterUnits="userSpaceOnUse" color-interpolation-filters="sRGB">
<feFlood flood-opacity="0" result="BackgroundImageFix"/>
<feColorMatrix in="SourceAlpha" type="matrix" values="0 0 0 0 0 0 0 0 0 0 0 0 0 0 0 0 0 0 127 0" result="hardAlpha"/>
<feOffset dx="1"/>
<feComposite in2="hardAlpha" operator="out"/>
<feColorMatrix type="matrix" values="0 0 0 0 1 0 0 0 0 1 0 0 0 0 1 0 0 0 1 0"/>
<feBlend mode="normal" in2="BackgroundImageFix" result="effect1_dropShadow_309_9"/>
<feColorMatrix in="SourceAlpha" type="matrix" values="0 0 0 0 0 0 0 0 0 0 0 0 0 0 0 0 0 0 127 0" result="hardAlpha"/>
<feOffset dx="-6" dy="6"/>
<feGaussianBlur stdDeviation="8"/>
<feComposite in2="hardAlpha" operator="out"/>
<feColorMatrix type="matrix" values="0 0 0 0 0.130295 0 0 0 0 0.220578 0 0 0 0 0.395833 0 0 0 0.15 0"/>
<feBlend mode="normal" in2="effect1_dropShadow_309_9" result="effect2_dropShadow_309_9"/>
<feBlend mode="normal" in="SourceGraphic" in2="effect2_dropShadow_309_9" result="shape"/>
</filter>
<filter id="filter1_dd_309_9" x="68.4744" y="169.627" width="61.1819" height="59.6248" filterUnits="userSpaceOnUse" color-interpolation-filters="sRGB">
<feFlood flood-opacity="0" result="BackgroundImageFix"/>
<feColorMatrix in="SourceAlpha" type="matrix" values="0 0 0 0 0 0 0 0 0 0 0 0 0 0 0 0 0 0 127 0" result="hardAlpha"/>
<feOffset dx="1"/>
<feComposite in2="hardAlpha" operator="out"/>
<feColorMatrix type="matrix" values="0 0 0 0 1 0 0 0 0 1 0 0 0 0 1 0 0 0 1 0"/>
<feBlend mode="normal" in2="BackgroundImageFix" result="effect1_dropShadow_309_9"/>
<feColorMatrix in="SourceAlpha" type="matrix" values="0 0 0 0 0 0 0 0 0 0 0 0 0 0 0 0 0 0 127 0" result="hardAlpha"/>
<feOffset dx="-9" dy="9"/>
<feGaussianBlur stdDeviation="4"/>
<feComposite in2="hardAlpha" operator="out"/>
<feColorMatrix type="matrix" values="0 0 0 0 0.242604 0 0 0 0 0.373896 0 0 0 0 0.570833 0 0 0 0.2 0"/>
<feBlend mode="normal" in2="effect1_dropShadow_309_9" result="effect2_dropShadow_309_9"/>
<feBlend mode="normal" in="SourceGraphic" in2="effect2_dropShadow_309_9" result="shape"/>
</filter>
<filter id="filter2_dd_309_9" x="452.249" y="23.4286" width="51.2368" height="51.0354" filterUnits="userSpaceOnUse" color-interpolation-filters="sRGB">
<feFlood flood-opacity="0" result="BackgroundImageFix"/>
<feColorMatrix in="SourceAlpha" type="matrix" values="0 0 0 0 0 0 0 0 0 0 0 0 0 0 0 0 0 0 127 0" result="hardAlpha"/>
<feOffset dx="1"/>
<feComposite in2="hardAlpha" operator="out"/>
<feColorMatrix type="matrix" values="0 0 0 0 1 0 0 0 0 1 0 0 0 0 1 0 0 0 1 0"/>
<feBlend mode="normal" in2="BackgroundImageFix" result="effect1_dropShadow_309_9"/>
<feColorMatrix in="SourceAlpha" type="matrix" values="0 0 0 0 0 0 0 0 0 0 0 0 0 0 0 0 0 0 127 0" result="hardAlpha"/>
<feOffset dx="-9" dy="9"/>
<feGaussianBlur stdDeviation="4"/>
<feComposite in2="hardAlpha" operator="out"/>
<feColorMatrix type="matrix" values="0 0 0 0 0.242604 0 0 0 0 0.373896 0 0 0 0 0.570833 0 0 0 0.2 0"/>
<feBlend mode="normal" in2="effect1_dropShadow_309_9" result="effect2_dropShadow_309_9"/>
<feBlend mode="normal" in="SourceGraphic" in2="effect2_dropShadow_309_9" result="shape"/>
</filter>
<filter id="filter3_dd_309_9" x="335.383" y="95.3827" width="128.096" height="147.271" filterUnits="userSpaceOnUse" color-interpolation-filters="sRGB">
<feFlood flood-opacity="0" result="BackgroundImageFix"/>
<feColorMatrix in="SourceAlpha" type="matrix" values="0 0 0 0 0 0 0 0 0 0 0 0 0 0 0 0 0 0 127 0" result="hardAlpha"/>
<feOffset dx="2"/>
<feComposite in2="hardAlpha" operator="out"/>
<feColorMatrix type="matrix" values="0 0 0 0 1 0 0 0 0 1 0 0 0 0 1 0 0 0 1 0"/>
<feBlend mode="normal" in2="BackgroundImageFix" result="effect1_dropShadow_309_9"/>
<feColorMatrix in="SourceAlpha" type="matrix" values="0 0 0 0 0 0 0 0 0 0 0 0 0 0 0 0 0 0 127 0" result="hardAlpha"/>
<feOffset dx="-10" dy="10"/>
<feGaussianBlur stdDeviation="7"/>
<feComposite in2="hardAlpha" operator="out"/>
<feColorMatrix type="matrix" values="0 0 0 0 0.174601 0 0 0 0 0.293094 0 0 0 0 0.470833 0 0 0 0.2 0"/>
<feBlend mode="normal" in2="effect1_dropShadow_309_9" result="effect2_dropShadow_309_9"/>
<feBlend mode="normal" in="SourceGraphic" in2="effect2_dropShadow_309_9" result="shape"/>
</filter>
<filter id="filter4_dd_309_9" x="168" y="43" width="219.371" height="203.019" filterUnits="userSpaceOnUse" color-interpolation-filters="sRGB">
<feFlood flood-opacity="0" result="BackgroundImageFix"/>
<feColorMatrix in="SourceAlpha" type="matrix" values="0 0 0 0 0 0 0 0 0 0 0 0 0 0 0 0 0 0 127 0" result="hardAlpha"/>
<feOffset dx="1.5"/>
<feComposite in2="hardAlpha" operator="out"/>
<feColorMatrix type="matrix" values="0 0 0 0 1 0 0 0 0 1 0 0 0 0 1 0 0 0 1 0"/>
<feBlend mode="normal" in2="BackgroundImageFix" result="effect1_dropShadow_309_9"/>
<feColorMatrix in="SourceAlpha" type="matrix" values="0 0 0 0 0 0 0 0 0 0 0 0 0 0 0 0 0 0 127 0" result="hardAlpha"/>
<feOffset dx="-16" dy="14"/>
<feGaussianBlur stdDeviation="10"/>
<feComposite in2="hardAlpha" operator="out"/>
<feColorMatrix type="matrix" values="0 0 0 0 0.141007 0 0 0 0 0.302937 0 0 0 0 0.545833 0 0 0 0.2 0"/>
<feBlend mode="normal" in2="effect1_dropShadow_309_9" result="effect2_dropShadow_309_9"/>
<feBlend mode="normal" in="SourceGraphic" in2="effect2_dropShadow_309_9" result="shape"/>
</filter>
<filter id="filter5_dd_309_9" x="245" y="1" width="89.5452" height="94.5453" filterUnits="userSpaceOnUse" color-interpolation-filters="sRGB">
<feFlood flood-opacity="0" result="BackgroundImageFix"/>
<feColorMatrix in="SourceAlpha" type="matrix" values="0 0 0 0 0 0 0 0 0 0 0 0 0 0 0 0 0 0 127 0" result="hardAlpha"/>
<feOffset dx="1"/>
<feComposite in2="hardAlpha" operator="out"/>
<feColorMatrix type="matrix" values="0 0 0 0 1 0 0 0 0 1 0 0 0 0 1 0 0 0 1 0"/>
<feBlend mode="normal" in2="BackgroundImageFix" result="effect1_dropShadow_309_9"/>
<feColorMatrix in="SourceAlpha" type="matrix" values="0 0 0 0 0 0 0 0 0 0 0 0 0 0 0 0 0 0 127 0" result="hardAlpha"/>
<feOffset dx="-4" dy="4"/>
<feGaussianBlur stdDeviation="4"/>
<feComposite in2="hardAlpha" operator="out"/>
<feColorMatrix type="matrix" values="0 0 0 0 0.18125 0 0 0 0 0.30875 0 0 0 0 0.5 0 0 0 0.2 0"/>
<feBlend mode="normal" in2="effect1_dropShadow_309_9" result="effect2_dropShadow_309_9"/>
<feBlend mode="normal" in="SourceGraphic" in2="effect2_dropShadow_309_9" result="shape"/>
</filter>
<linearGradient id="paint0_linear_309_9" x1="122.769" y1="47.022" x2="25.5036" y2="54.7318" gradientUnits="userSpaceOnUse">
<stop stop-color="#C7D9E2"/>
<stop offset="1" stop-color="#FAFBFB"/>
</linearGradient>
<linearGradient id="paint1_linear_309_9" x1="126.125" y1="185.435" x2="84.4329" y2="194.916" gradientUnits="userSpaceOnUse">
<stop stop-color="#BFDAE9"/>
<stop offset="1" stop-color="white"/>
</linearGradient>
<linearGradient id="paint2_linear_309_9" x1="496.112" y1="27.5595" x2="478.248" y2="55.9392" gradientUnits="userSpaceOnUse">
<stop stop-color="#BFDAE9"/>
<stop offset="1" stop-color="white"/>
</linearGradient>
<linearGradient id="paint3_linear_309_9" x1="354.457" y1="196.073" x2="466.003" y2="126.648" gradientUnits="userSpaceOnUse">
<stop stop-color="#FBFBFC"/>
<stop offset="1" stop-color="#C7D9E2"/>
</linearGradient>
<linearGradient id="paint4_linear_309_9" x1="364.5" y1="53" x2="207.5" y2="205.5" gradientUnits="userSpaceOnUse">
<stop stop-color="#C5D7E1"/>
<stop offset="1" stop-color="#FCFCFC"/>
</linearGradient>
<linearGradient id="paint5_linear_309_9" x1="320" y1="10.5" x2="253.5" y2="77.5" gradientUnits="userSpaceOnUse">
<stop stop-color="#CCE0EA"/>
<stop offset="1" stop-color="#E3E7EC"/>
</linearGradient>
</defs>
</svg>
