<svg width="44" height="44" viewBox="0 0 44 44" fill="none" xmlns="http://www.w3.org/2000/svg">
<path d="M21.6154 41.3015C10.9809 41.3015 2.32861 32.6482 2.32861 22.0125C2.32861 11.3718 10.9809 2.71851 21.6154 2.71851C32.2548 2.71851 40.9071 11.3718 40.9071 22.0125C40.9071 32.6482 32.2498 41.3015 21.6154 41.3015ZM21.6154 0.461548C9.71779 0.461548 0.0769043 10.1035 0.0769043 22.0025C0.0769043 33.8965 9.71779 43.5385 21.6154 43.5385C33.508 43.5385 43.1538 33.8965 43.1538 22.0025C43.1488 10.1035 33.508 0.461548 21.6154 0.461548ZM26.3534 29.5773C28.1109 31.5047 27.8712 35.0899 27.2821 36.7526C27.2521 36.8375 27.2022 37.0073 26.9975 37.0722C25.989 37.4467 24.8157 37.7013 24.1766 37.7962C26.9276 35.3146 27.337 31.7244 26.3534 29.5773ZM36.4387 27.3503C34.0422 25.2781 31.1514 23.885 28.4504 23.3757C31.2563 24.604 33.9473 27.4951 35.3103 30.2714C35.5949 29.812 36.1541 28.8183 36.5635 27.7148C36.6134 27.5351 36.5086 27.4152 36.4387 27.3503ZM37.607 22.0325C37.607 21.8577 37.5221 21.8078 37.4821 21.7928C35.8196 21.1137 34.7561 20.879 34.7561 20.879C35.2204 20.6743 35.53 20.16 35.5949 19.8804C34.5764 20.4296 33.2933 20.5994 32.5294 20.5395C34.0721 21.1686 36.1241 22.2472 37.547 23.4356C37.592 22.9063 37.607 22.367 37.607 22.0325ZM28.8897 27.7747C29.4789 27.9345 30.3226 28.0494 30.8718 27.7947C28.2307 27.1156 26.7578 23.4106 20.7716 22.8813C20.477 22.8564 19.8829 22.9313 20.2574 22.367C20.6268 21.7928 22.9684 20.17 22.9684 20.17C22.519 20.17 20.507 20.3447 19.9029 20.4296C19.3038 20.5145 19.154 20.3148 19.129 19.9153C19.129 19.9153 17.9158 21.0538 18.4949 21.633C18.5848 21.7179 18.8444 21.7479 19.154 21.603C19.4336 21.4782 19.9478 21.3084 20.2224 21.2535C20.2623 21.2435 20.3073 21.2685 20.2723 21.3234C20.1375 21.5431 19.793 22.1074 19.6982 22.377C19.5883 22.7265 19.5584 22.9013 20.1026 23.0661C20.6418 23.2408 23.3928 24.0997 25.0903 25.2481C26.7678 26.3966 30.762 29.5074 30.5473 35.2896C31.5109 34.6455 32.3097 33.9314 32.804 33.4471C32.9238 33.3322 32.8988 33.1475 32.8739 33.0776C32.2947 31.3599 30.6821 28.8882 28.8897 27.7747ZM35.1256 15.6611C34.871 16.5349 34.3018 16.9793 33.9623 17.0742C33.4081 17.2339 32.9288 17.0492 32.9288 17.0492C32.794 17.194 32.6442 17.3538 32.5194 17.4686C32.2997 17.6733 32.2099 17.5235 32.2248 17.3987C32.2398 17.2689 32.2648 17.1391 32.1749 16.9843C32.0301 16.7396 31.8504 16.9793 31.6107 17.0592C31.3811 17.1341 31.3112 16.8295 31.3112 16.8295C30.0131 16.5698 29.404 17.2289 29.404 17.2289C30.3476 17.3588 30.7919 17.958 30.8668 18.2626C30.9217 18.4922 31.5009 18.4922 31.7555 18.3125C31.8204 18.2675 31.9952 18.1727 31.9802 18.4074C31.9752 18.4972 31.9502 18.6321 31.9003 18.8118C32.3447 19.0515 32.4745 19.1014 32.3347 19.3461C31.8304 20.2299 31.3861 20.0901 31.2662 20.0501C29.404 19.3711 27.6465 19.0814 26.5481 19.0365C26.6929 18.8318 27.1523 18.4423 27.1523 18.4423C19.5933 18.4423 18.3202 19.3561 17.9208 19.8504C17.6562 20.185 17.8858 20.7092 17.8858 20.7092C16.9822 20.884 14.7404 21.2835 13.7069 22.1923C12.7783 23.0111 12.7084 24.8337 12.6735 25.5028C13.0928 25.0883 13.6071 24.7488 14.0864 24.5191C15.1049 24.0348 16.2932 24.1246 17.8309 24.1796C18.475 24.1995 18.8095 24.4542 18.9992 24.8337C19.1939 25.2132 18.7296 25.1682 18.465 24.9985C17.1719 24.1596 16.6976 25.7075 15.2996 25.2981C15.729 25.8323 16.3381 25.8274 16.6726 25.7025C18.0656 25.1732 18.4051 25.7325 18.48 25.8673C17.5763 25.8174 16.1634 26.3666 15.4694 26.5164C14.6106 26.7062 13.7968 26.7311 13.7968 26.7311C14.361 27.4152 15.1798 27.4152 15.7739 27.4152C16.378 27.4152 18.3152 27.2604 19.4735 27.3753C22.4442 27.6749 22.6239 30.4112 20.8914 32.0989C22.2994 31.7144 22.8635 30.3612 22.8635 30.3612C23.882 34.99 19.6383 37.4367 16.1783 36.7177C14.4958 36.3681 13.1627 35.6391 12.2091 34.955C11.4602 34.4158 10.8661 33.8615 10.6714 33.6818C12.958 34.271 16.413 34.3009 18.7795 33.2174C14.2262 33.2773 11.1357 32.1089 9.00383 30.9604C8.13511 30.4911 7.9354 30.3213 7.62585 29.777C6.95184 28.5786 6.51248 27.4901 6.0881 25.8923C7.84553 27.4302 11.605 29.4874 13.4423 29.6572C8.72424 26.9159 6.40264 22.9013 6.16299 22.4569C5.96328 22.0874 5.6138 21.6979 5.65873 20.8191C5.71864 19.6507 6.07812 17.913 6.5025 16.7446C7.06168 18.3524 8.46962 21.2635 10.1322 22.6416C8.46462 19.0964 8.21 14.5276 8.23995 13.7436C8.25493 13.3891 8.31983 13.0945 8.62938 12.6601C9.04377 12.0709 10.0074 10.9125 10.9909 10.0536C10.7812 11.3169 10.4567 13.8735 10.926 16.3351C11.5701 12.4803 13.0479 9.51934 14.0664 8.20611C14.2761 7.93647 14.4159 7.73674 14.8003 7.547C15.2547 7.31231 16.5328 6.75806 18.0506 6.41852C16.7475 7.31231 15.6741 9.08492 15.3296 10.0386C19.7631 5.7644 24.0218 5.79935 26.5182 4.67587C27.0125 4.45616 27.2871 4.88059 27.2571 5.19517C27.2122 5.59962 27.0424 6.26872 27.0424 6.26872C28.5702 6.63822 29.2192 7.38721 29.2192 7.38721C29.1693 7.18748 29.1943 6.84295 29.1943 6.84295C31.2812 8.70044 31.9752 10.1235 31.9103 11.287C31.8554 12.3355 32.6592 12.9098 33.0886 13.1444C33.5129 13.3741 35.2055 14.4377 35.525 14.7073C35.7746 14.9221 35.4052 15.4064 35.1256 15.6611ZM25.6445 6.02405C25.0453 6.41852 24.3813 6.98775 23.9519 7.93148C23.8771 8.08627 24.0019 8.26103 24.2365 8.12622C24.7508 7.83661 25.3799 7.68681 25.3799 7.68681C25.2301 7.20246 25.8192 6.39854 26.0988 6.06399C26.1887 5.96413 26.1088 5.74443 25.6445 6.02405ZM30.8219 10.533C30.6721 11.6614 30.4275 11.6115 30.1629 11.5216C29.6786 11.3569 28.8148 11.252 28.4803 11.3868C29.399 12.1907 30.0131 13.4041 30.0131 13.4041C30.0979 13.0046 29.8833 12.3905 29.7884 12.1807C29.7135 12.021 29.7984 12.0459 29.9881 12.0909C30.1079 12.1208 30.3775 12.1957 30.5173 12.2457C30.8568 12.3655 30.8968 12.2057 30.9367 11.9461C30.9866 11.6515 31.0166 11.2021 30.8219 10.533ZM19.9129 15.676C20.1275 15.5762 20.6967 15.3115 21.0762 15.2017C21.0762 15.2017 20.7466 16.3351 20.8066 18.1827C21.4456 18.0828 22.0997 18.0179 22.8685 17.9929C21.7302 17.5735 21.7951 15.4114 22.564 14.3079C22.7887 13.9883 22.529 13.9534 22.2395 14.0482C21.855 14.1681 21.6154 14.253 21.2409 14.3978C21.2409 14.3978 21.4157 11.5266 23.922 9.26468C21.5555 10.2683 19.7681 13.6488 19.9129 15.676Z" fill="white"/>
</svg>
