<svg width="51" height="62" viewBox="0 0 51 62" fill="none" xmlns="http://www.w3.org/2000/svg">
<path fill-rule="evenodd" clip-rule="evenodd" d="M45 43H25V41H45V43Z" fill="#9C9AB1"/>
<path fill-rule="evenodd" clip-rule="evenodd" d="M45 48H25V46H45V48Z" fill="#9C9AB1"/>
<path fill-rule="evenodd" clip-rule="evenodd" d="M37 53H25V51H37V53Z" fill="#9C9AB1"/>
<path fill-rule="evenodd" clip-rule="evenodd" d="M45 16H6V14H45V16Z" fill="#9C9AB1"/>
<path fill-rule="evenodd" clip-rule="evenodd" d="M45 24H35V22H45V24Z" fill="#9C9AB1"/>
<path fill-rule="evenodd" clip-rule="evenodd" d="M45 11H6V9H45V11Z" fill="#9C9AB1"/>
<rect x="1" y="1" width="49" height="30" rx="4" stroke="#9C9AB1" stroke-width="2"/>
<rect x="1" y="31" width="49" height="30" rx="4" stroke="#9C9AB1" stroke-width="2"/>
<path d="M9.61163 44.4734C9.61163 44.4734 9.02761 44.7677 9.02761 45.6504C9.02761 46.5332 9.90364 46.8274 9.90364 46.8274C9.90364 49.0011 13.1157 50.3584 13.9918 50.3584C14.8678 50.3584 18.0799 49.0011 18.0799 46.8274C18.0799 46.8274 18.9559 46.5332 18.9559 45.6504C18.9559 44.7677 18.3719 44.4734 18.3719 44.4734M9.61163 44.4734C9.61163 44.4734 9.31962 44.4734 9.31962 42.7079C9.31962 40.9425 10.4877 38 13.9918 38C17.4959 38 18.6639 40.9425 18.6639 42.7079C18.6639 43.8849 18.3719 44.4734 18.3719 44.4734M9.61163 44.4734C9.61163 44.4734 10.1957 45.0619 11.0717 45.0619C11.0717 45.0619 10.7797 42.7079 11.6557 42.1195C12.2397 43.2964 13.9918 44.4734 15.1598 44.4734C15.1598 44.4734 14.5758 43.2964 15.1598 42.7079C15.7438 44.1792 17.4959 44.4734 18.3719 44.4734M15.1598 50.0491L15.7438 52.1238C15.7438 52.1238 19.0917 52.7704 20.0458 53.5412C21 54.312 21 55 21 55M12.8402 50.0492L12.2562 52.1238C12.2562 52.1238 8.90834 52.7704 7.95417 53.5412C7 54.312 7 55 7 55" stroke="#9C9AB1" stroke-width="1.5" stroke-miterlimit="10"/>
</svg>
