<svg xmlns="http://www.w3.org/2000/svg" fill="none" viewBox="0 0 508 247"><g filter="url(#filter0_dd_309_9)"><path fill="url(#paint0_linear_309_9)" fill-rule="evenodd" d="M38.779 15.489a8 8 0 0110.563-4.051l67.383 30.028a8 8 0 014.051 10.563l-.515 1.156-82.405-35.627.923-2.07zm-3.392 7.61L23.69 49.35a8 8 0 004.051 10.564L95.124 89.94a8 8 0 0010.563-4.051l12.105-27.164L35.387 23.1zm-.39 27.607a3.338 3.338 0 014.385-1.745l9.377 4.038a3.338 3.338 0 11-2.64 6.131l-9.378-4.038a3.338 3.338 0 01-1.745-4.386z" clip-rule="evenodd"/></g><g filter="url(#filter1_dd_309_9)"><path fill="url(#paint1_linear_309_9)" d="M95.164 187.198l-9.69 11.509 14.972.919 8.49 12.626 5.122-14.146 14.598-3.709-11.885-9.621.995-15.149-12.622 8.437-14.483-5.603 4.503 14.737z"/></g><g filter="url(#filter2_dd_309_9)"><path fill="url(#paint2_linear_309_9)" d="M479.919 45.708l1.009 11.756 8.813-7.793 11.71 2.294-5.004-10.686 6.039-10.153-11.927 1.256-7.85-8.953-2.321 11.678-11.139 4.925 10.67 5.676z"/></g><g filter="url(#filter3_dd_309_9)"><path fill="url(#paint3_linear_309_9)" fill-rule="evenodd" d="M412.601 100.41c-4.957-2.436-10.95-.392-13.385 4.565l-38.806 78.982c-2.436 4.957-.392 10.949 4.565 13.385l41.286 20.285c4.957 2.435 10.95.391 13.385-4.566l38.806-78.981c2.436-4.957.392-10.95-4.565-13.385l-41.286-20.285zm-3.497 11.652a7 7 0 00-9.369 3.196l-28.223 57.441a6.999 6.999 0 003.196 9.369l37.696 18.521a7 7 0 009.369-3.195l28.223-57.442a7 7 0 00-3.196-9.369l-37.696-18.521zm-16.147 89.557a5.5 5.5 0 11-9.873-4.851 5.5 5.5 0 019.873 4.851zm27.76-91.65a1.499 1.499 0 10-1.322 2.692l19.745 9.702a1.501 1.501 0 001.323-2.693l-19.746-9.701z" clip-rule="evenodd"/></g><g filter="url(#filter4_dd_309_9)"><path fill="url(#paint4_linear_309_9)" d="M222.644 49l-18.5 146.5c-.333.667-.3 3.4 2.5 9s9.167 7.333 12 7.5h148.5c2.5.167 8.5-.7 12.5-5.5s4-10.333 3.5-12.5l-18-145h-32.5v23c.833.5 2.6 2.3 3 5.5.4 3.2-1.833 6.667-3 8-2.667 1.833-9.2 4.4-14 0-4.8-4.4-2.333-11.5-.5-14.5V49h-49v23c.667.167 2.1 1.8 2.5 7 .5 6.5-7 9.5-10 9s-7.5-1.5-9.5-7c-1.6-4.4 1-8.5 2.5-10V49h-32z"/></g><g filter="url(#filter5_dd_309_9)"><path fill="url(#paint5_linear_309_9)" d="M257.442 79.022c.8 4 3.333 4.667 4.5 4.5 4.4 0 5.167-3 5-4.5v-43c.833-7 7.3-21.2 26.5-22 19.2-.8 26.333 15 27.5 23v42.5c0 1.334 1 4 5 4s4.667-2.666 4.5-4c0 0 .442-30.977-.5-44-.942-13.022-10.5-29.7-36.5-30.5-26-.8-34.833 20-36 30.5-.333 12.834-.8 39.5 0 43.5z"/></g><defs><linearGradient id="paint0_linear_309_9" x1="122.769" x2="25.504" y1="47.022" y2="54.732" gradientUnits="userSpaceOnUse"><stop stop-color="#C7D9E2"/><stop offset="1" stop-color="#FAFBFB"/></linearGradient><linearGradient id="paint1_linear_309_9" x1="126.125" x2="84.433" y1="185.435" y2="194.916" gradientUnits="userSpaceOnUse"><stop stop-color="#BFDAE9"/><stop offset="1" stop-color="#fff"/></linearGradient><linearGradient id="paint2_linear_309_9" x1="496.112" x2="478.248" y1="27.559" y2="55.939" gradientUnits="userSpaceOnUse"><stop stop-color="#BFDAE9"/><stop offset="1" stop-color="#fff"/></linearGradient><linearGradient id="paint3_linear_309_9" x1="354.457" x2="466.003" y1="196.073" y2="126.648" gradientUnits="userSpaceOnUse"><stop stop-color="#FBFBFC"/><stop offset="1" stop-color="#C7D9E2"/></linearGradient><linearGradient id="paint4_linear_309_9" x1="364.5" x2="207.5" y1="53" y2="205.5" gradientUnits="userSpaceOnUse"><stop stop-color="#C5D7E1"/><stop offset="1" stop-color="#FCFCFC"/></linearGradient><linearGradient id="paint5_linear_309_9" x1="320" x2="253.5" y1="10.5" y2="77.5" gradientUnits="userSpaceOnUse"><stop stop-color="#CCE0EA"/><stop offset="1" stop-color="#E3E7EC"/></linearGradient><filter id="filter0_dd_309_9" width="130.476" height="111.892" x=".995" y=".743" color-interpolation-filters="sRGB" filterUnits="userSpaceOnUse"><feFlood flood-opacity="0" result="BackgroundImageFix"/><feColorMatrix in="SourceAlpha" result="hardAlpha" values="0 0 0 0 0 0 0 0 0 0 0 0 0 0 0 0 0 0 127 0"/><feOffset dx="1"/><feComposite in2="hardAlpha" operator="out"/><feColorMatrix values="0 0 0 0 1 0 0 0 0 1 0 0 0 0 1 0 0 0 1 0"/><feBlend in2="BackgroundImageFix" result="effect1_dropShadow_309_9"/><feColorMatrix in="SourceAlpha" result="hardAlpha" values="0 0 0 0 0 0 0 0 0 0 0 0 0 0 0 0 0 0 127 0"/><feOffset dx="-6" dy="6"/><feGaussianBlur stdDeviation="8"/><feComposite in2="hardAlpha" operator="out"/><feColorMatrix values="0 0 0 0 0.130295 0 0 0 0 0.220578 0 0 0 0 0.395833 0 0 0 0.15 0"/><feBlend in2="effect1_dropShadow_309_9" result="effect2_dropShadow_309_9"/><feBlend in="SourceGraphic" in2="effect2_dropShadow_309_9" result="shape"/></filter><filter id="filter1_dd_309_9" width="61.182" height="59.625" x="68.474" y="169.627" color-interpolation-filters="sRGB" filterUnits="userSpaceOnUse"><feFlood flood-opacity="0" result="BackgroundImageFix"/><feColorMatrix in="SourceAlpha" result="hardAlpha" values="0 0 0 0 0 0 0 0 0 0 0 0 0 0 0 0 0 0 127 0"/><feOffset dx="1"/><feComposite in2="hardAlpha" operator="out"/><feColorMatrix values="0 0 0 0 1 0 0 0 0 1 0 0 0 0 1 0 0 0 1 0"/><feBlend in2="BackgroundImageFix" result="effect1_dropShadow_309_9"/><feColorMatrix in="SourceAlpha" result="hardAlpha" values="0 0 0 0 0 0 0 0 0 0 0 0 0 0 0 0 0 0 127 0"/><feOffset dx="-9" dy="9"/><feGaussianBlur stdDeviation="4"/><feComposite in2="hardAlpha" operator="out"/><feColorMatrix values="0 0 0 0 0.242604 0 0 0 0 0.373896 0 0 0 0 0.570833 0 0 0 0.2 0"/><feBlend in2="effect1_dropShadow_309_9" result="effect2_dropShadow_309_9"/><feBlend in="SourceGraphic" in2="effect2_dropShadow_309_9" result="shape"/></filter><filter id="filter2_dd_309_9" width="51.237" height="51.035" x="452.249" y="23.429" color-interpolation-filters="sRGB" filterUnits="userSpaceOnUse"><feFlood flood-opacity="0" result="BackgroundImageFix"/><feColorMatrix in="SourceAlpha" result="hardAlpha" values="0 0 0 0 0 0 0 0 0 0 0 0 0 0 0 0 0 0 127 0"/><feOffset dx="1"/><feComposite in2="hardAlpha" operator="out"/><feColorMatrix values="0 0 0 0 1 0 0 0 0 1 0 0 0 0 1 0 0 0 1 0"/><feBlend in2="BackgroundImageFix" result="effect1_dropShadow_309_9"/><feColorMatrix in="SourceAlpha" result="hardAlpha" values="0 0 0 0 0 0 0 0 0 0 0 0 0 0 0 0 0 0 127 0"/><feOffset dx="-9" dy="9"/><feGaussianBlur stdDeviation="4"/><feComposite in2="hardAlpha" operator="out"/><feColorMatrix values="0 0 0 0 0.242604 0 0 0 0 0.373896 0 0 0 0 0.570833 0 0 0 0.2 0"/><feBlend in2="effect1_dropShadow_309_9" result="effect2_dropShadow_309_9"/><feBlend in="SourceGraphic" in2="effect2_dropShadow_309_9" result="shape"/></filter><filter id="filter3_dd_309_9" width="128.096" height="147.271" x="335.383" y="95.383" color-interpolation-filters="sRGB" filterUnits="userSpaceOnUse"><feFlood flood-opacity="0" result="BackgroundImageFix"/><feColorMatrix in="SourceAlpha" result="hardAlpha" values="0 0 0 0 0 0 0 0 0 0 0 0 0 0 0 0 0 0 127 0"/><feOffset dx="2"/><feComposite in2="hardAlpha" operator="out"/><feColorMatrix values="0 0 0 0 1 0 0 0 0 1 0 0 0 0 1 0 0 0 1 0"/><feBlend in2="BackgroundImageFix" result="effect1_dropShadow_309_9"/><feColorMatrix in="SourceAlpha" result="hardAlpha" values="0 0 0 0 0 0 0 0 0 0 0 0 0 0 0 0 0 0 127 0"/><feOffset dx="-10" dy="10"/><feGaussianBlur stdDeviation="7"/><feComposite in2="hardAlpha" operator="out"/><feColorMatrix values="0 0 0 0 0.174601 0 0 0 0 0.293094 0 0 0 0 0.470833 0 0 0 0.2 0"/><feBlend in2="effect1_dropShadow_309_9" result="effect2_dropShadow_309_9"/><feBlend in="SourceGraphic" in2="effect2_dropShadow_309_9" result="shape"/></filter><filter id="filter4_dd_309_9" width="219.371" height="203.019" x="168" y="43" color-interpolation-filters="sRGB" filterUnits="userSpaceOnUse"><feFlood flood-opacity="0" result="BackgroundImageFix"/><feColorMatrix in="SourceAlpha" result="hardAlpha" values="0 0 0 0 0 0 0 0 0 0 0 0 0 0 0 0 0 0 127 0"/><feOffset dx="1.5"/><feComposite in2="hardAlpha" operator="out"/><feColorMatrix values="0 0 0 0 1 0 0 0 0 1 0 0 0 0 1 0 0 0 1 0"/><feBlend in2="BackgroundImageFix" result="effect1_dropShadow_309_9"/><feColorMatrix in="SourceAlpha" result="hardAlpha" values="0 0 0 0 0 0 0 0 0 0 0 0 0 0 0 0 0 0 127 0"/><feOffset dx="-16" dy="14"/><feGaussianBlur stdDeviation="10"/><feComposite in2="hardAlpha" operator="out"/><feColorMatrix values="0 0 0 0 0.141007 0 0 0 0 0.302937 0 0 0 0 0.545833 0 0 0 0.2 0"/><feBlend in2="effect1_dropShadow_309_9" result="effect2_dropShadow_309_9"/><feBlend in="SourceGraphic" in2="effect2_dropShadow_309_9" result="shape"/></filter><filter id="filter5_dd_309_9" width="89.545" height="94.545" x="245" y="1" color-interpolation-filters="sRGB" filterUnits="userSpaceOnUse"><feFlood flood-opacity="0" result="BackgroundImageFix"/><feColorMatrix in="SourceAlpha" result="hardAlpha" values="0 0 0 0 0 0 0 0 0 0 0 0 0 0 0 0 0 0 127 0"/><feOffset dx="1"/><feComposite in2="hardAlpha" operator="out"/><feColorMatrix values="0 0 0 0 1 0 0 0 0 1 0 0 0 0 1 0 0 0 1 0"/><feBlend in2="BackgroundImageFix" result="effect1_dropShadow_309_9"/><feColorMatrix in="SourceAlpha" result="hardAlpha" values="0 0 0 0 0 0 0 0 0 0 0 0 0 0 0 0 0 0 127 0"/><feOffset dx="-4" dy="4"/><feGaussianBlur stdDeviation="4"/><feComposite in2="hardAlpha" operator="out"/><feColorMatrix values="0 0 0 0 0.18125 0 0 0 0 0.30875 0 0 0 0 0.5 0 0 0 0.2 0"/><feBlend in2="effect1_dropShadow_309_9" result="effect2_dropShadow_309_9"/><feBlend in="SourceGraphic" in2="effect2_dropShadow_309_9" result="shape"/></filter></defs></svg>