<svg xmlns="http://www.w3.org/2000/svg" fill="none" viewBox="0 0 189 254"><g filter="url(#filter0_dd_9_954)"><path fill="url(#paint0_linear_9_954)" d="M114.735 117.054l-12.637 100.065c-.227.456-.204 2.323 1.708 6.148 1.913 3.825 6.261 5.009 8.197 5.122h101.431c1.708.114 5.806-.478 8.538-3.756 2.732-3.279 2.732-7.058 2.391-8.538l-12.295-99.041h-22.199v15.71c.569.341 1.776 1.571 2.049 3.756.273 2.186-1.252 4.554-2.049 5.465-1.821 1.252-6.284 3.005-9.562 0-3.279-3.006-1.594-7.855-.342-9.904v-15.027h-33.469v15.71c.455.113 1.434 1.229 1.708 4.781.341 4.44-4.782 6.489-6.831 6.147-2.049-.341-5.123-1.024-6.489-4.781-1.092-3.005.683-5.806 1.708-6.83v-15.027h-21.857z"/></g><g filter="url(#filter1_dd_9_954)"><path fill="url(#paint1_linear_9_954)" d="M27.92 214.708l1.008 11.756 8.813-7.793 11.71 2.294-5.004-10.686 6.04-10.153-11.928 1.256-7.85-8.953-2.32 11.678-11.14 4.925 10.67 5.676z"/></g><g filter="url(#filter2_dd_9_954)"><path fill="url(#paint2_linear_9_954)" d="M138.503 137.56c.547 2.732 2.277 3.188 3.074 3.074 3.005 0 3.529-2.049 3.415-3.074v-29.37c.569-4.782 4.986-14.48 18.101-15.027 13.114-.547 17.987 10.245 18.783 15.71v29.029c0 .911.683 2.732 3.416 2.732 2.732 0 3.187-1.821 3.073-2.732 0 0 .302-21.159-.341-30.054s-7.172-20.286-24.931-20.833c-17.759-.546-23.793 13.661-24.59 20.833-.227 8.766-.546 26.98 0 29.712z"/></g><g filter="url(#filter3_dd_9_954)"><path fill="url(#paint3_linear_9_954)" fill-rule="evenodd" d="M149.722 14.78a7.986 7.986 0 0110.263-3.454l41.503 18.533a8.017 8.017 0 014.505 9.269L149.722 14.78zm-1.787 3.953l-7.423 16.692a8.015 8.015 0 004.054 10.572l41.503 18.534a7.986 7.986 0 0010.556-4.048l7.714-17.345-56.404-24.405zm-.572 19.615a2.385 2.385 0 013.135-1.248l6.232 2.686a2.387 2.387 0 01-1.887 4.384l-6.232-2.685a2.388 2.388 0 01-1.248-3.137z" clip-rule="evenodd"/></g><defs><linearGradient id="paint0_linear_9_954" x1="211.628" x2="104.391" y1="119.786" y2="223.95" gradientUnits="userSpaceOnUse"><stop stop-color="#C5D7E1"/><stop offset="1" stop-color="#FCFCFC"/></linearGradient><linearGradient id="paint1_linear_9_954" x1="44.112" x2="26.248" y1="196.56" y2="224.939" gradientUnits="userSpaceOnUse"><stop stop-color="#BFDAE9"/><stop offset="1" stop-color="#fff"/></linearGradient><linearGradient id="paint2_linear_9_954" x1="181.233" x2="135.811" y1="90.757" y2="136.52" gradientUnits="userSpaceOnUse"><stop stop-color="#CCE0EA"/><stop offset="1" stop-color="#E3E7EC"/></linearGradient><linearGradient id="paint3_linear_9_954" x1="207.8" x2="140.674" y1="34.77" y2="38.91" gradientUnits="userSpaceOnUse"><stop stop-color="#C7D9E2"/><stop offset="1" stop-color="#FAFBFB"/></linearGradient><filter id="filter0_dd_9_954" width="162.518" height="151.348" x="66" y="111.054" color-interpolation-filters="sRGB" filterUnits="userSpaceOnUse"><feFlood flood-opacity="0" result="BackgroundImageFix"/><feColorMatrix in="SourceAlpha" result="hardAlpha" values="0 0 0 0 0 0 0 0 0 0 0 0 0 0 0 0 0 0 127 0"/><feOffset dx="1"/><feComposite in2="hardAlpha" operator="out"/><feColorMatrix values="0 0 0 0 1 0 0 0 0 1 0 0 0 0 1 0 0 0 1 0"/><feBlend in2="BackgroundImageFix" result="effect1_dropShadow_9_954"/><feColorMatrix in="SourceAlpha" result="hardAlpha" values="0 0 0 0 0 0 0 0 0 0 0 0 0 0 0 0 0 0 127 0"/><feOffset dx="-16" dy="14"/><feGaussianBlur stdDeviation="10"/><feComposite in2="hardAlpha" operator="out"/><feColorMatrix values="0 0 0 0 0.141007 0 0 0 0 0.302937 0 0 0 0 0.545833 0 0 0 0.2 0"/><feBlend in2="effect1_dropShadow_9_954" result="effect2_dropShadow_9_954"/><feBlend in="SourceGraphic" in2="effect2_dropShadow_9_954" result="shape"/></filter><filter id="filter1_dd_9_954" width="51.237" height="51.035" x=".25" y="192.429" color-interpolation-filters="sRGB" filterUnits="userSpaceOnUse"><feFlood flood-opacity="0" result="BackgroundImageFix"/><feColorMatrix in="SourceAlpha" result="hardAlpha" values="0 0 0 0 0 0 0 0 0 0 0 0 0 0 0 0 0 0 127 0"/><feOffset dx="1"/><feComposite in2="hardAlpha" operator="out"/><feColorMatrix values="0 0 0 0 1 0 0 0 0 1 0 0 0 0 1 0 0 0 1 0"/><feBlend in2="BackgroundImageFix" result="effect1_dropShadow_9_954"/><feColorMatrix in="SourceAlpha" result="hardAlpha" values="0 0 0 0 0 0 0 0 0 0 0 0 0 0 0 0 0 0 127 0"/><feOffset dx="-9" dy="9"/><feGaussianBlur stdDeviation="4"/><feComposite in2="hardAlpha" operator="out"/><feColorMatrix values="0 0 0 0 0.242604 0 0 0 0 0.373896 0 0 0 0 0.570833 0 0 0 0.2 0"/><feBlend in2="effect1_dropShadow_9_954" result="effect2_dropShadow_9_954"/><feBlend in="SourceGraphic" in2="effect2_dropShadow_9_954" result="shape"/></filter><filter id="filter2_dd_9_954" width="66.234" height="69.65" x="126.202" y="83" color-interpolation-filters="sRGB" filterUnits="userSpaceOnUse"><feFlood flood-opacity="0" result="BackgroundImageFix"/><feColorMatrix in="SourceAlpha" result="hardAlpha" values="0 0 0 0 0 0 0 0 0 0 0 0 0 0 0 0 0 0 127 0"/><feOffset dx="1"/><feComposite in2="hardAlpha" operator="out"/><feColorMatrix values="0 0 0 0 1 0 0 0 0 1 0 0 0 0 1 0 0 0 1 0"/><feBlend in2="BackgroundImageFix" result="effect1_dropShadow_9_954"/><feColorMatrix in="SourceAlpha" result="hardAlpha" values="0 0 0 0 0 0 0 0 0 0 0 0 0 0 0 0 0 0 127 0"/><feOffset dx="-4" dy="4"/><feGaussianBlur stdDeviation="4"/><feComposite in2="hardAlpha" operator="out"/><feColorMatrix values="0 0 0 0 0.18125 0 0 0 0 0.30875 0 0 0 0 0.5 0 0 0 0.2 0"/><feBlend in2="effect1_dropShadow_9_954" result="effect2_dropShadow_9_954"/><feBlend in="SourceGraphic" in2="effect2_dropShadow_9_954" result="shape"/></filter><filter id="filter3_dd_9_954" width="98.415" height="86.599" x="117.819" y=".629" color-interpolation-filters="sRGB" filterUnits="userSpaceOnUse"><feFlood flood-opacity="0" result="BackgroundImageFix"/><feColorMatrix in="SourceAlpha" result="hardAlpha" values="0 0 0 0 0 0 0 0 0 0 0 0 0 0 0 0 0 0 127 0"/><feOffset dx="1"/><feComposite in2="hardAlpha" operator="out"/><feColorMatrix values="0 0 0 0 1 0 0 0 0 1 0 0 0 0 1 0 0 0 1 0"/><feBlend in2="BackgroundImageFix" result="effect1_dropShadow_9_954"/><feColorMatrix in="SourceAlpha" result="hardAlpha" values="0 0 0 0 0 0 0 0 0 0 0 0 0 0 0 0 0 0 127 0"/><feOffset dx="-6" dy="6"/><feGaussianBlur stdDeviation="8"/><feComposite in2="hardAlpha" operator="out"/><feColorMatrix values="0 0 0 0 0.130295 0 0 0 0 0.220578 0 0 0 0 0.395833 0 0 0 0.15 0"/><feBlend in2="effect1_dropShadow_9_954" result="effect2_dropShadow_9_954"/><feBlend in="SourceGraphic" in2="effect2_dropShadow_9_954" result="shape"/></filter></defs></svg>