<svg xmlns="http://www.w3.org/2000/svg" fill="none" viewBox="0 0 357 261"><g filter="url(#filter0_dd_345_14)"><path fill="url(#paint0_linear_345_14)" d="M153.644 63l-18.5 146.5c-.333.667-.3 3.4 2.5 9s9.167 7.333 12 7.5h148.5c2.5.167 8.5-.7 12.5-5.5s4-10.333 3.5-12.5l-18-145h-32.5v23c.833.5 2.6 2.3 3 5.5.4 3.2-1.833 6.667-3 8-2.667 1.833-9.2 4.4-14 0-4.8-4.4-2.333-11.5-.5-14.5V63h-49v23c.667.167 2.1 1.8 2.5 7 .5 6.5-7 9.5-10 9s-7.5-1.5-9.5-7c-1.6-4.4 1-8.5 2.5-10V63h-32z"/></g><g filter="url(#filter1_dd_345_14)"><path fill="url(#paint1_linear_345_14)" d="M188.442 93.022c.8 4 3.333 4.667 4.5 4.5 4.4 0 5.167-3 5-4.5v-43c.833-7 7.3-21.2 26.5-22 19.2-.8 26.333 15 27.5 23v42.5c0 1.334 1 4 5 4s4.667-2.666 4.5-4c0 0 .442-30.977-.5-44-.942-13.022-10.5-29.7-36.5-30.5-26-.8-34.833 20-36 30.5-.333 12.834-.8 39.5 0 43.5z"/></g><g filter="url(#filter2_dd_345_14)"><path fill="url(#paint2_linear_345_14)" fill-rule="evenodd" d="M35.966 15.443a8 8 0 0110.563-4.051l57.001 25.401a8.001 8.001 0 014.051 10.564l-.038.084-71.97-31.116.393-.882zm-2.55 5.721l-9.804 22.001a8 8 0 004.05 10.564l57.001 25.4a8 8 0 0010.564-4.05l10.159-22.799-71.97-31.116zm-.342 24.111a2.915 2.915 0 013.83-1.524l8.19 3.527a2.915 2.915 0 11-2.306 5.355l-8.19-3.527a2.915 2.915 0 01-1.524-3.83z" clip-rule="evenodd"/></g><g filter="url(#filter3_dd_345_14)"><path fill="url(#paint3_linear_345_14)" d="M64.164 209.599l-9.69 11.509 14.972.919 8.49 12.626 5.122-14.146 14.598-3.709-11.885-9.621.995-15.149-12.622 8.437-14.483-5.603 4.503 14.737z"/></g><g filter="url(#filter4_dd_345_14)"><path fill="url(#paint4_linear_345_14)" fill-rule="evenodd" d="M321.601 114.41c-4.957-2.436-10.95-.392-13.385 4.565l-38.806 78.982c-2.436 4.957-.392 10.949 4.565 13.385l41.286 20.285c4.957 2.435 10.95.391 13.385-4.566l38.806-78.981c2.436-4.957.392-10.95-4.565-13.385l-41.286-20.285zm-3.497 11.652a7 7 0 00-9.369 3.196l-28.223 57.441a6.999 6.999 0 003.196 9.369l37.696 18.521a7 7 0 009.369-3.195l28.223-57.441a7 7 0 00-3.196-9.37l-37.696-18.521zm-16.147 89.557a5.5 5.5 0 11-9.873-4.851 5.5 5.5 0 019.873 4.851zm27.76-91.65a1.499 1.499 0 10-1.322 2.692l19.745 9.702a1.501 1.501 0 001.323-2.693l-19.746-9.701z" clip-rule="evenodd"/></g><defs><linearGradient id="paint0_linear_345_14" x1="295.5" x2="138.5" y1="67" y2="219.5" gradientUnits="userSpaceOnUse"><stop stop-color="#C5D7E1"/><stop offset="1" stop-color="#FCFCFC"/></linearGradient><linearGradient id="paint1_linear_345_14" x1="251" x2="184.5" y1="24.5" y2="91.5" gradientUnits="userSpaceOnUse"><stop stop-color="#CCE0EA"/><stop offset="1" stop-color="#E3E7EC"/></linearGradient><linearGradient id="paint2_linear_345_14" x1="109.712" x2="24.806" y1="42.065" y2="48.805" gradientUnits="userSpaceOnUse"><stop stop-color="#C7D9E2"/><stop offset="1" stop-color="#FAFBFB"/></linearGradient><linearGradient id="paint3_linear_345_14" x1="95.125" x2="53.433" y1="207.836" y2="217.317" gradientUnits="userSpaceOnUse"><stop stop-color="#BFDAE9"/><stop offset="1" stop-color="#fff"/></linearGradient><linearGradient id="paint4_linear_345_14" x1="263.457" x2="375.003" y1="210.073" y2="140.648" gradientUnits="userSpaceOnUse"><stop stop-color="#FBFBFC"/><stop offset="1" stop-color="#C7D9E2"/></linearGradient><filter id="filter0_dd_345_14" width="219.371" height="203.019" x="99" y="57" color-interpolation-filters="sRGB" filterUnits="userSpaceOnUse"><feFlood flood-opacity="0" result="BackgroundImageFix"/><feColorMatrix in="SourceAlpha" result="hardAlpha" values="0 0 0 0 0 0 0 0 0 0 0 0 0 0 0 0 0 0 127 0"/><feOffset dx="1.5"/><feComposite in2="hardAlpha" operator="out"/><feColorMatrix values="0 0 0 0 1 0 0 0 0 1 0 0 0 0 1 0 0 0 1 0"/><feBlend in2="BackgroundImageFix" result="effect1_dropShadow_345_14"/><feColorMatrix in="SourceAlpha" result="hardAlpha" values="0 0 0 0 0 0 0 0 0 0 0 0 0 0 0 0 0 0 127 0"/><feOffset dx="-16" dy="14"/><feGaussianBlur stdDeviation="10"/><feComposite in2="hardAlpha" operator="out"/><feColorMatrix values="0 0 0 0 0.141007 0 0 0 0 0.302937 0 0 0 0 0.545833 0 0 0 0.2 0"/><feBlend in2="effect1_dropShadow_345_14" result="effect2_dropShadow_345_14"/><feBlend in="SourceGraphic" in2="effect2_dropShadow_345_14" result="shape"/></filter><filter id="filter1_dd_345_14" width="89.545" height="94.545" x="176" y="15" color-interpolation-filters="sRGB" filterUnits="userSpaceOnUse"><feFlood flood-opacity="0" result="BackgroundImageFix"/><feColorMatrix in="SourceAlpha" result="hardAlpha" values="0 0 0 0 0 0 0 0 0 0 0 0 0 0 0 0 0 0 127 0"/><feOffset dx="1"/><feComposite in2="hardAlpha" operator="out"/><feColorMatrix values="0 0 0 0 1 0 0 0 0 1 0 0 0 0 1 0 0 0 1 0"/><feBlend in2="BackgroundImageFix" result="effect1_dropShadow_345_14"/><feColorMatrix in="SourceAlpha" result="hardAlpha" values="0 0 0 0 0 0 0 0 0 0 0 0 0 0 0 0 0 0 127 0"/><feOffset dx="-4" dy="4"/><feGaussianBlur stdDeviation="4"/><feComposite in2="hardAlpha" operator="out"/><feColorMatrix values="0 0 0 0 0.18125 0 0 0 0 0.30875 0 0 0 0 0.5 0 0 0 0.2 0"/><feBlend in2="effect1_dropShadow_345_14" result="effect2_dropShadow_345_14"/><feBlend in="SourceGraphic" in2="effect2_dropShadow_345_14" result="shape"/></filter><filter id="filter2_dd_345_14" width="117.358" height="101.127" x=".917" y=".697" color-interpolation-filters="sRGB" filterUnits="userSpaceOnUse"><feFlood flood-opacity="0" result="BackgroundImageFix"/><feColorMatrix in="SourceAlpha" result="hardAlpha" values="0 0 0 0 0 0 0 0 0 0 0 0 0 0 0 0 0 0 127 0"/><feOffset dx="1"/><feComposite in2="hardAlpha" operator="out"/><feColorMatrix values="0 0 0 0 1 0 0 0 0 1 0 0 0 0 1 0 0 0 1 0"/><feBlend in2="BackgroundImageFix" result="effect1_dropShadow_345_14"/><feColorMatrix in="SourceAlpha" result="hardAlpha" values="0 0 0 0 0 0 0 0 0 0 0 0 0 0 0 0 0 0 127 0"/><feOffset dx="-6" dy="6"/><feGaussianBlur stdDeviation="8"/><feComposite in2="hardAlpha" operator="out"/><feColorMatrix values="0 0 0 0 0.130295 0 0 0 0 0.220578 0 0 0 0 0.395833 0 0 0 0.15 0"/><feBlend in2="effect1_dropShadow_345_14" result="effect2_dropShadow_345_14"/><feBlend in="SourceGraphic" in2="effect2_dropShadow_345_14" result="shape"/></filter><filter id="filter3_dd_345_14" width="61.182" height="59.625" x="37.474" y="192.028" color-interpolation-filters="sRGB" filterUnits="userSpaceOnUse"><feFlood flood-opacity="0" result="BackgroundImageFix"/><feColorMatrix in="SourceAlpha" result="hardAlpha" values="0 0 0 0 0 0 0 0 0 0 0 0 0 0 0 0 0 0 127 0"/><feOffset dx="1"/><feComposite in2="hardAlpha" operator="out"/><feColorMatrix values="0 0 0 0 1 0 0 0 0 1 0 0 0 0 1 0 0 0 1 0"/><feBlend in2="BackgroundImageFix" result="effect1_dropShadow_345_14"/><feColorMatrix in="SourceAlpha" result="hardAlpha" values="0 0 0 0 0 0 0 0 0 0 0 0 0 0 0 0 0 0 127 0"/><feOffset dx="-9" dy="9"/><feGaussianBlur stdDeviation="4"/><feComposite in2="hardAlpha" operator="out"/><feColorMatrix values="0 0 0 0 0.242604 0 0 0 0 0.373896 0 0 0 0 0.570833 0 0 0 0.2 0"/><feBlend in2="effect1_dropShadow_345_14" result="effect2_dropShadow_345_14"/><feBlend in="SourceGraphic" in2="effect2_dropShadow_345_14" result="shape"/></filter><filter id="filter4_dd_345_14" width="128.096" height="147.271" x="244.383" y="109.383" color-interpolation-filters="sRGB" filterUnits="userSpaceOnUse"><feFlood flood-opacity="0" result="BackgroundImageFix"/><feColorMatrix in="SourceAlpha" result="hardAlpha" values="0 0 0 0 0 0 0 0 0 0 0 0 0 0 0 0 0 0 127 0"/><feOffset dx="2"/><feComposite in2="hardAlpha" operator="out"/><feColorMatrix values="0 0 0 0 1 0 0 0 0 1 0 0 0 0 1 0 0 0 1 0"/><feBlend in2="BackgroundImageFix" result="effect1_dropShadow_345_14"/><feColorMatrix in="SourceAlpha" result="hardAlpha" values="0 0 0 0 0 0 0 0 0 0 0 0 0 0 0 0 0 0 127 0"/><feOffset dx="-10" dy="10"/><feGaussianBlur stdDeviation="7"/><feComposite in2="hardAlpha" operator="out"/><feColorMatrix values="0 0 0 0 0.174601 0 0 0 0 0.293094 0 0 0 0 0.470833 0 0 0 0.2 0"/><feBlend in2="effect1_dropShadow_345_14" result="effect2_dropShadow_345_14"/><feBlend in="SourceGraphic" in2="effect2_dropShadow_345_14" result="shape"/></filter></defs></svg>