<svg xmlns="http://www.w3.org/2000/svg" fill="none" viewBox="0 0 44 44"><path fill="#fff" d="M21.615 41.301c-10.634 0-19.286-8.653-19.286-19.289 0-10.64 8.652-19.293 19.286-19.293 10.64 0 19.292 8.653 19.292 19.293 0 10.636-8.657 19.29-19.292 19.29zm0-40.84C9.718.462.077 10.105.077 22.004c0 11.894 9.64 21.535 21.538 21.535 11.893 0 21.539-9.641 21.539-21.535C43.149 10.103 33.508.462 21.615.462zm4.738 29.116c1.758 1.928 1.518 5.513.93 7.176-.03.084-.08.254-.286.32a15.66 15.66 0 01-2.82.723c2.75-2.481 3.16-6.072 2.176-8.219zM36.44 27.35c-2.397-2.072-5.288-3.465-7.989-3.974 2.806 1.228 5.497 4.12 6.86 6.895a15.29 15.29 0 001.253-2.556c.05-.18-.054-.3-.124-.365zm1.168-5.318c0-.174-.085-.224-.125-.24-1.662-.678-2.726-.913-2.726-.913.464-.205.774-.719.839-.999-1.019.55-2.302.72-3.066.66 1.543.629 3.595 1.707 5.018 2.896.045-.53.06-1.069.06-1.404zm-8.717 5.743c.589.16 1.433.274 1.982.02-2.641-.68-4.114-4.384-10.1-4.914-.295-.025-.89.05-.515-.514.37-.574 2.711-2.197 2.711-2.197-.449 0-2.461.175-3.065.26-.6.085-.749-.115-.774-.515 0 0-1.213 1.139-.634 1.718.09.085.35.115.659-.03.28-.125.794-.295 1.068-.35.04-.01.085.015.05.07-.134.22-.479.784-.574 1.054-.11.35-.14.524.405.69.539.174 3.29 1.033 4.987 2.181 1.678 1.149 5.672 4.26 5.457 10.042a16.151 16.151 0 002.257-1.843c.12-.115.095-.3.07-.37-.58-1.717-2.192-4.189-3.984-5.302zm6.236-12.114c-.255.874-.824 1.318-1.164 1.413-.554.16-1.033-.025-1.033-.025a8.289 8.289 0 01-.41.42c-.22.204-.31.054-.294-.07.015-.13.04-.26-.05-.415-.145-.244-.325-.005-.564.075-.23.075-.3-.23-.3-.23-1.298-.26-1.907.4-1.907.4.944.13 1.388.729 1.463 1.034.055.23.634.23.889.05.064-.046.24-.14.224.094-.005.09-.03.225-.08.405.445.24.575.29.435.534-.505.884-.949.744-1.069.704-1.862-.679-3.62-.969-4.718-1.014.145-.204.604-.594.604-.594-7.559 0-8.832.914-9.231 1.408-.265.335-.035.86-.035.86-.904.174-3.146.573-4.18 1.482-.928.82-.998 2.642-1.032 3.31a5.357 5.357 0 011.412-.983c1.019-.484 2.207-.394 3.745-.34.644.02.979.275 1.168.655.195.38-.27.334-.534.165-1.293-.84-1.767.709-3.165.3a1.225 1.225 0 001.373.404c1.393-.53 1.732.03 1.807.164-.904-.05-2.317.5-3.01.65-.86.19-1.673.214-1.673.214.564.684 1.383.684 1.977.684.604 0 2.541-.155 3.7-.04 2.97.3 3.15 3.036 1.417 4.724 1.408-.385 1.973-1.738 1.973-1.738 1.018 4.629-3.226 7.076-6.686 6.357a10.479 10.479 0 01-3.969-1.763c-.749-.54-1.343-1.093-1.538-1.273 2.287.589 5.742.619 8.108-.465-4.553.06-7.643-1.108-9.775-2.257-.869-.469-1.069-.639-1.378-1.183-.674-1.198-1.114-2.287-1.538-3.885 1.758 1.538 5.517 3.595 7.354 3.765-4.718-2.741-7.04-6.756-7.279-7.2-.2-.37-.55-.76-.504-1.638.06-1.168.42-2.906.844-4.074.559 1.607 1.967 4.518 3.63 5.897-1.668-3.546-1.923-8.114-1.893-8.898.015-.355.08-.65.39-1.084a16.916 16.916 0 012.36-2.606c-.209 1.263-.533 3.82-.064 6.281.644-3.855 2.122-6.816 3.14-8.129.21-.27.35-.47.734-.659.455-.235 1.733-.789 3.25-1.128-1.303.893-2.376 2.666-2.72 3.62 4.433-4.275 8.692-4.24 11.188-5.363.494-.22.77.205.74.52-.046.404-.216 1.073-.216 1.073 1.528.37 2.177 1.118 2.177 1.118-.05-.2-.025-.544-.025-.544 2.087 1.857 2.781 3.28 2.716 4.444-.055 1.048.75 1.623 1.179 1.857.424.23 2.117 1.294 2.436 1.563.25.215-.12.7-.4.954zm-9.481-9.637c-.6.395-1.264.964-1.693 1.907-.075.155.05.33.284.195a5.102 5.102 0 011.144-.44c-.15-.484.44-1.287.719-1.622.09-.1.01-.32-.454-.04zm5.177 4.509c-.15 1.128-.395 1.079-.66.989-.483-.165-1.347-.27-1.682-.135.919.804 1.533 2.017 1.533 2.017.085-.4-.13-1.014-.225-1.223-.075-.16.01-.135.2-.09.12.03.39.105.53.155.339.12.379-.04.419-.3.05-.294.08-.744-.115-1.413zm-10.91 5.143c.216-.1.785-.364 1.164-.474 0 0-.33 1.133-.27 2.98a16.51 16.51 0 012.063-.19c-1.139-.419-1.074-2.58-.305-3.684.225-.32-.035-.355-.325-.26-.384.12-.624.205-.998.35 0 0 .175-2.871 2.681-5.133-2.367 1.003-4.154 4.384-4.01 6.411z"/></svg>