<svg xmlns="http://www.w3.org/2000/svg" fill="none" viewBox="0 0 51 62"><path fill="#9C9AB1" fill-rule="evenodd" d="M45 43H25v-2h20v2zm0 5H25v-2h20v2zm-8 5H25v-2h12v2zm8-37H6v-2h39v2zm0 8H35v-2h10v2zm0-13H6V9h39v2z" clip-rule="evenodd"/><rect width="49" height="30" x="1" y="1" stroke="#9C9AB1" stroke-width="2" rx="4"/><rect width="49" height="30" x="1" y="31" stroke="#9C9AB1" stroke-width="2" rx="4"/><path stroke="#9C9AB1" stroke-miterlimit="10" stroke-width="1.5" d="M9.612 44.473s-.584.295-.584 1.177c0 .883.876 1.177.876 1.177 0 2.174 3.212 3.531 4.088 3.531.876 0 4.088-1.357 4.088-3.53 0 0 .876-.295.876-1.178 0-.882-.584-1.177-.584-1.177m-8.76 0s-.292 0-.292-1.765S10.488 38 13.992 38c3.504 0 4.672 2.943 4.672 4.708 0 1.177-.292 1.765-.292 1.765m-8.76 0s.584.589 1.46.589c0 0-.292-2.354.584-2.942.584 1.176 2.336 2.353 3.504 2.353 0 0-.584-1.177 0-1.765.584 1.471 2.336 1.765 3.212 1.765M15.16 50.05l.584 2.075s3.348.646 4.302 1.417C21 54.312 21 55 21 55m-8.16-4.95l-.584 2.074s-3.348.646-4.302 1.417C7 54.312 7 55 7 55"/></svg>